<?xml version="1.0" encoding="UTF-8" standalone="no"?>
<!DOCTYPE svg PUBLIC "-//W3C//DTD SVG 1.1//EN" "http://www.w3.org/Graphics/SVG/1.1/DTD/svg11.dtd">
<!-- Generated by Microsoft Visio, SVG Export Funnel.svg Page-1 -->
<svg xmlns="http://www.w3.org/2000/svg" xmlns:xlink="http://www.w3.org/1999/xlink" xmlns:ev="http://www.w3.org/2001/xml-events"
		xmlns:v="http://schemas.microsoft.com/visio/2003/SVGExtensions/" width="4.0976in" height="5.52223in"
		viewBox="0 0 295.027 397.6" xml:space="preserve" color-interpolation-filters="sRGB" class="st5">
	<v:documentProperties v:langID="2055" v:metric="true" v:viewMarkup="false"/>

	<style type="text/css">
	<![CDATA[
		.st1 {fill:#296e01;stroke:none;stroke-linecap:round;stroke-linejoin:round;stroke-width:0.75}
		.st2 {stroke:#00b050;stroke-linecap:round;stroke-linejoin:round;stroke-width:6}
		.st3 {fill:#ffffff;stroke:none;stroke-linecap:round;stroke-linejoin:round;stroke-width:0.75}
		.st4 {fill:#000000;stroke:none;stroke-linecap:butt;stroke-width:1.19531}
		.st5 {fill:none;fill-rule:evenodd;font-size:12px;overflow:visible;stroke-linecap:square;stroke-miterlimit:3}
	]]>
	</style>

	<g v:mID="0" v:index="1" v:groupContext="foregroundPage">
		<title>Page-1</title>
		<v:pageProperties v:drawingScale="0.0393701" v:pageScale="0.0393701" v:drawingUnits="24" v:shadowOffsetX="8.50394"
				v:shadowOffsetY="-8.50394"/>
		<g id="shape31-1" v:mID="31" v:groupContext="shape" transform="translate(47.0758,-0.375006)">
			<title>Sheet.31</title>
			<path d="M205.51 220.44 C162.3 218.88 150.24 254.55 144.57 291.3 C141.98 308.03 140.73 324.99 135.78 340.91 C127.02 369.09
						 106.7 394.01 77.95 397.6 L0 397.6 L0 0.75 L77.95 0.75 C106.7 4.34 127.02 29.26 135.78 57.44 C140.73 73.36
						 141.98 90.32 144.57 107.05 C150.24 143.8 162.3 179.47 205.51 177.92 L205.51 220.44 Z" class="st1"/>
		</g>
		<g id="shape54-3" v:mID="54" v:groupContext="shape" transform="translate(115.107,-216.976)">
			<title>Sheet.54</title>
			<path d="M0 242.39 L24.09 242.39 L24.09 284.49 L59.53 284.49 L59.53 390.04 L59.53 396.01 L59.53 397.6 L99.21 397.6"
					class="st2"/>
		</g>
		<g id="shape61-6" v:mID="61" v:groupContext="shape" transform="translate(112.273,-208.915)">
			<title>Sheet.61</title>
			<path d="M101.2 397.6 L41.95 397.6 L41.95 315.96 L0 315.96" class="st2"/>
		</g>
		<g id="shape62-9" v:mID="62" v:groupContext="shape" transform="translate(213.753,594.789) rotate(180)">
			<title>Sheet.62</title>
			<path d="M0 397.6 L104.31 397.6" class="st2"/>
		</g>
		<g id="shape63-12" v:mID="63" v:groupContext="shape" transform="translate(69.753,-117.64)">
			<title>Sheet.63</title>
			<path d="M144.85 322.77 L102.05 322.77 L102.05 350.55 L44.22 350.55 L44.22 397.6 L0 397.6" class="st2"/>
		</g>
		<g id="shape64-15" v:mID="64" v:groupContext="shape" transform="translate(109.438,-24.0965)">
			<title>Sheet.64</title>
			<path d="M104.31 237.73 L70.87 237.73 L70.87 309.73 L34.02 309.73 L34.02 397.6 L0 397.6" class="st2"/>
		</g>
		<g id="group53-18" transform="translate(210.918,-155.057)" v:mID="53" v:groupContext="group">
			<title>Sheet.53</title>
			<g id="shape52-19" v:mID="52" v:groupContext="shape" transform="translate(6.37795,-6.51966)">
				<title>Sheet.52</title>
				<rect x="0" y="327.585" width="70.0157" height="70.0157" rx="8.50394" ry="8.50394" class="st3"/>
			</g>
			<g id="group32-21" v:mID="32" v:groupContext="group">
				<title>Sheet.32</title>
				<g id="group33-22" v:mID="33" v:groupContext="group">
					<title>Sheet.33</title>
					<g id="shape34-23" v:mID="34" v:groupContext="shape" transform="translate(19.3465,-16.5827)">
						<title>Sheet.34</title>
						<path d="M4.15 372.73 C2.01 372.73 0 374.74 0 376.87 L0 390.69 C0 392.82 2.01 394.84 4.15 394.84 L6.91 394.84
									 C9.04 394.84 11.06 392.82 11.06 390.69 C11.06 390.07 11.82 389.31 12.44 389.31 L17.96 389.31
									 C18.58 389.31 19.35 390.07 19.35 390.69 C19.35 392.82 21.36 394.84 23.49 394.84 L36.18 394.84
									 C36.76 396.44 38.28 397.6 40.07 397.6 C42.36 397.6 44.22 395.74 44.22 393.45 C44.22 391.17 42.36
									 389.31 40.07 389.31 C38.28 389.31 36.76 390.47 36.18 392.07 L23.49 392.07 C22.87 392.07 22.11
									 391.31 22.11 390.69 C22.11 388.56 20.1 386.55 17.96 386.55 L12.44 386.55 C10.3 386.55 8.29 388.56
									 8.29 390.69 C8.29 391.31 7.53 392.07 6.91 392.07 L4.15 392.07 C3.53 392.07 2.76 391.31 2.76
									 390.69 L2.76 376.87 C2.76 376.25 3.53 375.49 4.15 375.49 C6.28 375.49 8.29 373.48 8.29 371.34
									 C8.29 369.21 6.28 367.2 4.15 367.2 C3.53 367.2 2.76 366.44 2.76 365.82 L2.76 354.76 C2.76 354.14
									 3.53 353.38 4.15 353.38 L40.07 353.38 C40.69 353.38 41.46 354.14 41.46 354.76 L41.46 376.87
									 C41.46 377.49 40.69 378.25 40.07 378.25 L35.67 378.25 C35.26 377.08 34.34 376.16 33.17 375.74
									 L33.17 366.94 C34.77 366.37 35.93 364.85 35.93 363.05 C35.93 360.77 34.07 358.91 31.78 358.91
									 C29.5 358.91 27.64 360.77 27.64 363.05 C27.64 364.85 28.8 366.37 30.4 366.94 L30.4 375.74 C29.23
									 376.16 28.31 377.08 27.89 378.25 L17.96 378.25 C17.35 378.25 16.58 377.49 16.58 376.87 L16.58
									 372.47 C18.19 371.9 19.35 370.38 19.35 368.58 C19.35 366.3 17.49 364.44 15.2 364.44 C12.92 364.44
									 11.06 366.3 11.06 368.58 C11.06 370.38 12.21 371.9 13.82 372.47 L13.82 376.87 C13.82 379 15.83
									 381.02 17.96 381.02 L27.89 381.02 C28.47 382.62 29.98 383.78 31.78 383.78 C33.58 383.78 35.1
									 382.62 35.67 381.02 L40.07 381.02 C42.21 381.02 44.22 379 44.22 376.87 L44.22 354.76 C44.22
									 352.63 42.21 350.62 40.07 350.62 L4.15 350.62 C2.01 350.62 0 352.63 0 354.76 L0 365.82 C0 367.95
									 2.01 369.96 4.15 369.96 C4.76 369.96 5.53 370.72 5.53 371.34 C5.53 371.96 4.76 372.73 4.15 372.73
									 ZM40.07 392.07 C40.84 392.07 41.46 392.69 41.46 393.45 C41.46 394.22 40.84 394.84 40.07 394.84
									 C39.31 394.84 38.69 394.22 38.69 393.45 C38.69 392.69 39.31 392.07 40.07 392.07 ZM15.2 369.96
									 C14.44 369.96 13.82 369.34 13.82 368.58 C13.82 367.82 14.44 367.2 15.2 367.2 C15.96 367.2 16.58
									 367.82 16.58 368.58 C16.58 369.34 15.96 369.96 15.2 369.96 ZM31.78 361.67 C32.55 361.67 33.17
									 362.29 33.17 363.05 C33.17 363.81 32.55 364.43 31.78 364.43 C31.02 364.43 30.4 363.81 30.4 363.05
									 C30.4 362.29 31.02 361.67 31.78 361.67 ZM31.78 381.02 C31.02 381.02 30.4 380.4 30.4 379.64 C30.4
									 378.87 31.02 378.25 31.78 378.25 C32.55 378.25 33.17 378.87 33.17 379.64 C33.17 380.4 32.55
									 381.02 31.78 381.02 Z" class="st4"/>
					</g>
					<g id="shape35-25" v:mID="35" v:groupContext="shape">
						<title>Sheet.35</title>
						<path d="M81.53 345.09 C82.3 345.09 82.91 344.47 82.91 343.71 C82.91 342.94 82.3 342.32 81.53 342.32 L77.39
									 342.32 L77.39 336.8 L81.53 336.8 C82.3 336.8 82.91 336.18 82.91 335.42 C82.91 334.65 82.3 334.03
									 81.53 334.03 L77.39 334.03 L77.39 327.12 C77.39 323.57 74.03 320.21 70.48 320.21 L63.57 320.21
									 L63.57 316.07 C63.57 315.31 62.95 314.69 62.19 314.69 C61.42 314.69 60.8 315.31 60.8 316.07
									 L60.8 320.21 L55.28 320.21 L55.28 316.07 C55.28 315.31 54.66 314.69 53.89 314.69 C53.13 314.69
									 52.51 315.31 52.51 316.07 L52.51 320.21 L46.98 320.21 L46.98 316.07 C46.98 315.31 46.37 314.69
									 45.6 314.69 C44.84 314.69 44.22 315.31 44.22 316.07 L44.22 320.21 L38.69 320.21 L38.69 316.07
									 C38.69 315.31 38.08 314.69 37.31 314.69 C36.55 314.69 35.93 315.31 35.93 316.07 L35.93 320.21
									 L30.4 320.21 L30.4 316.07 C30.4 315.31 29.78 314.69 29.02 314.69 C28.26 314.69 27.64 315.31
									 27.64 316.07 L27.64 320.21 L22.11 320.21 L22.11 316.07 C22.11 315.31 21.49 314.69 20.73 314.69
									 C19.96 314.69 19.35 315.31 19.35 316.07 L19.35 320.21 L12.44 320.21 C8.89 320.21 5.53 323.57
									 5.53 327.12 L5.53 334.03 L1.38 334.03 C0.62 334.03 0 334.65 0 335.42 C0 336.18 0.62 336.8 1.38
									 336.8 L5.53 336.8 L5.53 342.32 L1.38 342.32 C0.62 342.32 0 342.94 0 343.71 C0 344.47 0.62 345.09
									 1.38 345.09 L5.53 345.09 L5.53 350.62 L1.38 350.62 C0.62 350.62 0 351.24 0 352 C0 352.76 0.62
									 353.38 1.38 353.38 L5.53 353.38 L5.53 358.91 L1.38 358.91 C0.62 358.91 0 359.53 0 360.29 C0
									 361.05 0.62 361.67 1.38 361.67 L5.53 361.67 L5.53 367.2 L1.38 367.2 C0.62 367.2 0 367.82 0 368.58
									 C0 369.34 0.62 369.96 1.38 369.96 L5.53 369.96 L5.53 375.49 L1.38 375.49 C0.62 375.49 0 376.11
									 0 376.87 C0 377.63 0.62 378.25 1.38 378.25 L5.53 378.25 L5.53 379.64 C5.53 380.4 6.15 381.02
									 6.91 381.02 C7.67 381.02 8.29 380.4 8.29 379.64 L8.29 327.12 C8.29 325.11 10.42 322.98 12.44
									 322.98 L70.48 322.98 C72.49 322.98 74.62 325.11 74.62 327.12 L74.62 385.16 C74.62 387.18 72.49
									 389.31 70.48 389.31 L12.44 389.31 C10.42 389.31 8.29 387.18 8.29 385.16 C8.29 384.4 7.67 383.78
									 6.91 383.78 C6.15 383.78 5.53 384.4 5.53 385.16 C5.53 388.71 8.89 392.07 12.44 392.07 L19.35
									 392.07 L19.35 396.22 C19.35 396.98 19.96 397.6 20.73 397.6 C21.49 397.6 22.11 396.98 22.11 396.22
									 L22.11 392.07 L27.64 392.07 L27.64 396.22 C27.64 396.98 28.26 397.6 29.02 397.6 C29.78 397.6
									 30.4 396.98 30.4 396.22 L30.4 392.07 L35.93 392.07 L35.93 396.22 C35.93 396.98 36.55 397.6 37.31
									 397.6 C38.08 397.6 38.69 396.98 38.69 396.22 L38.69 392.07 L44.22 392.07 L44.22 396.22 C44.22
									 396.98 44.84 397.6 45.6 397.6 C46.37 397.6 46.98 396.98 46.98 396.22 L46.98 392.07 L52.51 392.07
									 L52.51 396.22 C52.51 396.98 53.13 397.6 53.89 397.6 C54.66 397.6 55.28 396.98 55.28 396.22 L55.28
									 392.07 L60.8 392.07 L60.8 396.22 C60.8 396.98 61.42 397.6 62.18 397.6 C62.95 397.6 63.57 396.98
									 63.57 396.22 L63.57 392.07 L70.48 392.07 C74.03 392.07 77.39 388.71 77.39 385.16 L77.39 378.25
									 L81.53 378.25 C82.3 378.25 82.91 377.63 82.91 376.87 C82.91 376.11 82.3 375.49 81.53 375.49
									 L77.39 375.49 L77.39 369.96 L81.53 369.96 C82.3 369.96 82.91 369.34 82.91 368.58 C82.91 367.82
									 82.3 367.2 81.53 367.2 L77.39 367.2 L77.39 361.67 L81.53 361.67 C82.3 361.67 82.91 361.05 82.91
									 360.29 C82.91 359.53 82.3 358.91 81.53 358.91 L77.39 358.91 L77.39 353.38 L81.53 353.38 C82.3
									 353.38 82.91 352.76 82.91 352 C82.91 351.24 82.3 350.62 81.53 350.62 L77.39 350.62 L77.39 345.09
									 L81.53 345.09 L81.53 345.09 Z" class="st4"/>
					</g>
					<g id="shape36-27" v:mID="36" v:groupContext="shape" transform="translate(13.8535,-66.3307)">
						<title>Sheet.36</title>
						<path d="M1.39 397.6 C2.15 397.6 2.77 396.98 2.77 396.22 C2.77 395.46 2.15 394.84 1.39 394.84 L1.37 394.84
									 C0.61 394.84 0 395.46 0 396.22 C0 396.98 0.63 397.6 1.39 397.6 Z" class="st4"/>
					</g>
					<g id="shape37-29" v:mID="37" v:groupContext="shape" transform="translate(13.8535,-13.8188)">
						<title>Sheet.37</title>
						<path d="M1.39 397.6 C2.15 397.6 2.77 396.98 2.77 396.22 C2.77 395.46 2.15 394.84 1.39 394.84 L1.37 394.84
									 C0.61 394.84 0 395.46 0 396.22 C0 396.98 0.63 397.6 1.39 397.6 Z" class="st4"/>
					</g>
					<g id="shape38-31" v:mID="38" v:groupContext="shape" transform="translate(66.3652,-13.8188)">
						<title>Sheet.38</title>
						<path d="M1.39 397.6 C2.15 397.6 2.77 396.98 2.77 396.22 C2.77 395.46 2.15 394.84 1.39 394.84 L1.37 394.84
									 C0.61 394.84 0 395.46 0 396.22 C0 396.98 0.62 397.6 1.39 397.6 Z" class="st4"/>
					</g>
					<g id="shape39-33" v:mID="39" v:groupContext="shape" transform="translate(66.3652,-66.3307)">
						<title>Sheet.39</title>
						<path d="M1.39 397.6 C2.15 397.6 2.77 396.98 2.77 396.22 C2.77 395.46 2.15 394.84 1.39 394.84 L1.37 394.84
									 C0.61 394.84 0 395.46 0 396.22 C0 396.98 0.62 397.6 1.39 397.6 Z" class="st4"/>
					</g>
				</g>
			</g>
		</g>
		<g id="shape68-35" v:mID="68" v:groupContext="shape" transform="translate(0.375,-0.375)">
			<title>Sheet.68</title>
			<path d="M0 397.6 L0 0.75 L49.54 0.75 L49.54 397.6 L0 397.6 Z" class="st1"/>
		</g>
		<g id="shape69-37" v:mID="69" v:groupContext="shape" transform="translate(115.107,423.01) rotate(180)">
			<title>Sheet.69</title>
			<path d="M0 397.6 L100.56 397.6" class="st2"/>
		</g>
		<g id="shape70-40" v:mID="70" v:groupContext="shape" transform="translate(112.273,504.648) rotate(180)">
			<title>Sheet.70</title>
			<path d="M0 397.6 L94.98 397.6" class="st2"/>
		</g>
		<g id="shape71-43" v:mID="71" v:groupContext="shape" transform="translate(109.438,594.789) rotate(180)">
			<title>Sheet.71</title>
			<path d="M0 397.6 L87.8 397.6" class="st2"/>
		</g>
		<g id="shape72-46" v:mID="72" v:groupContext="shape" transform="translate(69.753,677.561) rotate(180)">
			<title>Sheet.72</title>
			<path d="M0 397.6 L48.12 397.6" class="st2"/>
		</g>
		<g id="shape73-49" v:mID="73" v:groupContext="shape" transform="translate(109.438,771.104) rotate(180)">
			<title>Sheet.73</title>
			<path d="M0 397.6 L87.8 397.6" class="st2"/>
		</g>
	</g>
</svg>
